<svg width="53" height="53" viewBox="0 0 53 53" fill="none" xmlns="http://www.w3.org/2000/svg">
<path d="M27.5417 17.4999H20.7083C20.2553 17.4999 19.8207 17.6799 19.5004 18.0003C19.18 18.3207 19 18.7552 19 19.2083V32.8749C19 33.328 19.18 33.7625 19.5004 34.0829C19.8207 34.4033 20.2553 34.5833 20.7083 34.5833H30.9583C31.4114 34.5833 31.8459 34.4033 32.1663 34.0829C32.4867 33.7625 32.6667 33.328 32.6667 32.8749V22.6249M27.5417 17.4999L32.6667 22.6249M27.5417 17.4999L27.5417 22.6249H32.6667M29.25 26.8958H22.4167M29.25 30.3124H22.4167M24.125 23.4791H22.4167" stroke="white" stroke-width="2" stroke-linecap="round" stroke-linejoin="round"/>
</svg>
