<svg width="21" height="21" viewBox="0 0 21 21" fill="none" xmlns="http://www.w3.org/2000/svg">
<g clip-path="url(#clip0_321_69)">
<path d="M10.25 12.8125C11.6652 12.8125 12.8125 11.6652 12.8125 10.25C12.8125 8.83477 11.6652 7.6875 10.25 7.6875C8.83477 7.6875 7.6875 8.83477 7.6875 10.25C7.6875 11.6652 8.83477 12.8125 10.25 12.8125Z" stroke="white" stroke-width="2" stroke-linecap="round" stroke-linejoin="round"/>
<path d="M16.5708 12.8125C16.4571 13.0701 16.4232 13.3559 16.4734 13.633C16.5237 13.9101 16.6557 14.1658 16.8527 14.3671L16.9039 14.4183C17.0628 14.577 17.1888 14.7654 17.2747 14.9728C17.3607 15.1802 17.4049 15.4025 17.4049 15.627C17.4049 15.8515 17.3607 16.0738 17.2747 16.2812C17.1888 16.4885 17.0628 16.677 16.9039 16.8356C16.7453 16.9944 16.5568 17.1205 16.3495 17.2064C16.1421 17.2924 15.9198 17.3366 15.6953 17.3366C15.4708 17.3366 15.2485 17.2924 15.0411 17.2064C14.8337 17.1205 14.6453 16.9944 14.4866 16.8356L14.4354 16.7844C14.2341 16.5874 13.9784 16.4554 13.7013 16.4051C13.4242 16.3549 13.1384 16.3888 12.8808 16.5025C12.6282 16.6108 12.4127 16.7906 12.2609 17.0197C12.1092 17.2489 12.0277 17.5174 12.0266 17.7923V17.9375C12.0266 18.3906 11.8466 18.8251 11.5263 19.1455C11.2059 19.4658 10.7714 19.6458 10.3183 19.6458C9.86521 19.6458 9.43069 19.4658 9.11032 19.1455C8.78994 18.8251 8.60996 18.3906 8.60996 17.9375V17.8606C8.60335 17.5779 8.51183 17.3037 8.34731 17.0737C8.18279 16.8436 7.95288 16.6684 7.68746 16.5708C7.42983 16.4571 7.14404 16.4232 6.86696 16.4734C6.58987 16.5237 6.33418 16.6558 6.13288 16.8527L6.08163 16.9039C5.92297 17.0628 5.73456 17.1888 5.52717 17.2748C5.31978 17.3607 5.09748 17.405 4.87298 17.405C4.64848 17.405 4.42618 17.3607 4.21879 17.2748C4.0114 17.1888 3.82299 17.0628 3.66433 16.9039C3.5055 16.7453 3.37949 16.5569 3.29352 16.3495C3.20755 16.1421 3.1633 15.9198 3.1633 15.6953C3.1633 15.4708 3.20755 15.2485 3.29352 15.0411C3.37949 14.8337 3.5055 14.6453 3.66433 14.4867L3.71558 14.4354C3.9125 14.2341 4.0446 13.9784 4.09484 13.7013C4.14508 13.4242 4.11116 13.1385 3.99746 12.8808C3.88918 12.6282 3.7094 12.4127 3.48023 12.261C3.25107 12.1092 2.98253 12.0278 2.70767 12.0267H2.56246C2.10938 12.0267 1.67486 11.8467 1.35449 11.5263C1.03411 11.2059 0.854126 10.7714 0.854126 10.3183C0.854126 9.86524 1.03411 9.43072 1.35449 9.11035C1.67486 8.78997 2.10938 8.60999 2.56246 8.60999H2.63933C2.92206 8.60338 3.19625 8.51186 3.42628 8.34734C3.6563 8.18282 3.83151 7.95291 3.92913 7.68749C4.04283 7.42986 4.07675 7.14407 4.0265 6.86699C3.97626 6.5899 3.84417 6.33422 3.64725 6.13291L3.596 6.08166C3.43717 5.923 3.31116 5.73459 3.22519 5.5272C3.13922 5.31981 3.09497 5.09751 3.09497 4.87301C3.09497 4.64851 3.13922 4.42621 3.22519 4.21882C3.31116 4.01143 3.43717 3.82302 3.596 3.66436C3.75466 3.50553 3.94307 3.37952 4.15046 3.29355C4.35785 3.20758 4.58015 3.16333 4.80465 3.16333C5.02915 3.16333 5.25145 3.20758 5.45884 3.29355C5.66622 3.37952 5.85463 3.50553 6.01329 3.66436L6.06454 3.71561C6.26585 3.91253 6.52154 4.04463 6.79862 4.09487C7.07571 4.14511 7.3615 4.11119 7.61913 3.99749H7.68746C7.9401 3.88921 8.15556 3.70943 8.30732 3.48026C8.45909 3.2511 8.54053 2.98256 8.54163 2.7077V2.56249C8.54163 2.10941 8.72161 1.67489 9.04199 1.35452C9.36236 1.03414 9.79688 0.854156 10.25 0.854156C10.703 0.854156 11.1376 1.03414 11.4579 1.35452C11.7783 1.67489 11.9583 2.10941 11.9583 2.56249V2.63936C11.9594 2.91422 12.0408 3.18276 12.1926 3.41193C12.3444 3.64109 12.5598 3.82088 12.8125 3.92916C13.0701 4.04286 13.3559 4.07678 13.633 4.02654C13.91 3.97629 14.1657 3.8442 14.367 3.64728L14.4183 3.59603C14.5769 3.4372 14.7654 3.31119 14.9727 3.22522C15.1801 3.13925 15.4024 3.095 15.6269 3.095C15.8514 3.095 16.0737 3.13925 16.2811 3.22522C16.4885 3.31119 16.6769 3.4372 16.8356 3.59603C16.9944 3.75469 17.1204 3.9431 17.2064 4.15049C17.2924 4.35788 17.3366 4.58018 17.3366 4.80468C17.3366 5.02918 17.2924 5.25148 17.2064 5.45887C17.1204 5.66626 16.9944 5.85466 16.8356 6.01332L16.7843 6.06457C16.5874 6.26588 16.4553 6.52157 16.4051 6.79865C16.3548 7.07574 16.3888 7.36153 16.5025 7.61916V7.68749C16.6107 7.94013 16.7905 8.15559 17.0197 8.30735C17.2489 8.45912 17.5174 8.54056 17.7923 8.54166H17.9375C18.3905 8.54166 18.8251 8.72164 19.1454 9.04202C19.4658 9.36239 19.6458 9.79691 19.6458 10.25C19.6458 10.7031 19.4658 11.1376 19.1454 11.458C18.8251 11.7783 18.3905 11.9583 17.9375 11.9583H17.8606C17.5857 11.9594 17.3172 12.0409 17.088 12.1926C16.8589 12.3444 16.6791 12.5599 16.5708 12.8125V12.8125Z" stroke="white" stroke-width="2" stroke-linecap="round" stroke-linejoin="round"/>
</g>
<defs>
<clipPath id="clip0_321_69">
<rect width="20.5" height="20.5" fill="white"/>
</clipPath>
</defs>
</svg>
