<svg width="53" height="53" viewBox="0 0 53 53" fill="none" xmlns="http://www.w3.org/2000/svg">
<path d="M18.7931 21.945L26.25 26.2585L33.7069 21.945M26.25 34.86V26.25M33.9375 29.6667V22.8333C33.9372 22.5338 33.8581 22.2395 33.7082 21.9802C33.5583 21.7208 33.3428 21.5054 33.0833 21.3556L27.1042 17.939C26.8445 17.789 26.5499 17.7101 26.25 17.7101C25.9501 17.7101 25.6555 17.789 25.3958 17.939L19.4167 21.3556C19.1572 21.5054 18.9417 21.7208 18.7918 21.9802C18.6419 22.2395 18.5628 22.5338 18.5625 22.8333V29.6667C18.5628 29.9662 18.6419 30.2605 18.7918 30.5198C18.9417 30.7792 19.1572 30.9946 19.4167 31.1444L25.3958 34.561C25.6555 34.711 25.9501 34.7899 26.25 34.7899C26.5499 34.7899 26.8445 34.711 27.1042 34.561L33.0833 31.1444C33.3428 30.9946 33.5583 30.7792 33.7082 30.5198C33.8581 30.2605 33.9372 29.9662 33.9375 29.6667Z" stroke="white" stroke-width="2" stroke-linecap="round" stroke-linejoin="round"/>
</svg>
