<svg width="21" height="21" viewBox="0 0 21 21" fill="none" xmlns="http://www.w3.org/2000/svg">
<path d="M15.375 6.83333C15.375 5.47409 14.835 4.17053 13.8739 3.20941C12.9128 2.24828 11.6092 1.70833 10.25 1.70833C8.89077 1.70833 7.5872 2.24828 6.62608 3.20941C5.66495 4.17053 5.125 5.47409 5.125 6.83333C5.125 12.8125 2.5625 14.5208 2.5625 14.5208H17.9375C17.9375 14.5208 15.375 12.8125 15.375 6.83333Z" stroke="white" stroke-width="2" stroke-linecap="round" stroke-linejoin="round"/>
<path d="M11.7278 17.9375C11.5776 18.1964 11.362 18.4113 11.1027 18.5606C10.8434 18.71 10.5493 18.7886 10.25 18.7886C9.95076 18.7886 9.65673 18.71 9.3974 18.5606C9.13806 18.4113 8.92251 18.1964 8.77234 17.9375" stroke="white" stroke-width="2" stroke-linecap="round" stroke-linejoin="round"/>
</svg>
