<svg width="53" height="53" viewBox="0 0 53 53" fill="none" xmlns="http://www.w3.org/2000/svg">
<path d="M33.9307 32.2164C34.6609 34.1212 34.4228 35.899 33.2164 37.5498C32.0101 39.2006 30.3117 40.0259 28.1212 40.0259C27.0736 40.0259 26.0818 39.7561 25.146 39.2164C24.2088 38.6767 23.518 37.9625 23.0736 37.0736C20.4387 37.4545 18.2564 36.7796 16.5269 35.0488C14.7961 33.3193 14.0894 31.1053 14.4069 28.4069C13.4545 27.8672 12.7244 27.1294 12.2164 26.1936C11.7085 25.2564 11.4545 24.1847 11.4545 22.9783C11.4545 21.0418 12.3358 19.478 14.0983 18.2869C15.8596 17.0971 17.5815 16.8514 19.264 17.5498L22.2164 18.7879C22.8513 17.8037 23.6926 17.0018 24.7402 16.3821C25.7879 15.7637 26.9148 15.4228 28.1212 15.3593V11.4545H30.9783V15.7402C32.1529 16.0894 33.1212 16.6367 33.8831 17.3821C34.645 18.1288 35.2958 19.1688 35.8355 20.5021H40.0259V23.3593H36.1212C36.0577 24.5656 35.7326 25.6926 35.1459 26.7402C34.558 27.7879 33.772 28.6291 32.7879 29.264L33.9307 32.2164ZM22.1212 33.3593C22.1212 32.5021 22.1929 31.6691 22.3364 30.8602C22.4787 30.0501 22.6926 29.264 22.9783 28.5021C22.2482 28.8513 21.4621 29.0971 20.6202 29.2393C19.7796 29.3828 18.9466 29.4228 18.1212 29.3593C18.1212 30.5974 18.478 31.5739 19.1917 32.2888C19.9066 33.0025 20.8831 33.3593 22.1212 33.3593ZM18.5974 25.5498C19.6133 25.5498 20.5104 25.4228 21.2888 25.1688C22.066 24.9148 23.0736 24.4069 24.3117 23.645L18.5974 21.264C17.6767 20.8831 16.8914 20.8907 16.2412 21.2869C15.5898 21.6844 15.2641 22.3117 15.2641 23.1688C15.2641 23.9942 15.5339 24.5974 16.0736 24.9783C16.6133 25.3593 17.4545 25.5498 18.5974 25.5498ZM28.1212 36.2164C28.9148 36.2164 29.5574 35.9383 30.0488 35.3821C30.5415 34.8272 30.6609 34.2482 30.4069 33.645L27.8355 27.1688C27.2323 28.1847 26.7644 29.2006 26.4317 30.2164C26.0977 31.2323 25.9307 32.1529 25.9307 32.9783C25.9307 34.0259 26.1136 34.8272 26.4793 35.3821C26.8437 35.9383 27.391 36.2164 28.1212 36.2164ZM31.264 25.645C31.5815 25.3275 31.8355 24.9066 32.0259 24.3821C32.2164 23.859 32.3117 23.3117 32.3117 22.7402C32.3117 21.7244 31.9783 20.8672 31.3117 20.1688C30.645 19.4704 29.8196 19.1212 28.8355 19.1212C28.264 19.1212 27.7244 19.2164 27.2164 19.4069C26.7085 19.5974 26.2799 19.8672 25.9307 20.2164L29.645 21.9307L31.264 25.645Z" fill="#BFB2FF"/>
</svg>
