<svg width="21" height="21" viewBox="0 0 21 21" fill="none" xmlns="http://www.w3.org/2000/svg">
<path d="M7.76442 7.68749C7.96523 7.11663 8.36161 6.63525 8.88334 6.32863C9.40506 6.02201 10.0185 5.90992 10.6149 6.01223C11.2114 6.11453 11.7524 6.42463 12.1421 6.88759C12.5318 7.35055 12.7451 7.9365 12.7442 8.54166C12.7442 10.25 10.1817 11.1042 10.1817 11.1042M10.25 14.5208H10.2586M18.7917 10.25C18.7917 14.9674 14.9675 18.7917 10.25 18.7917C5.53261 18.7917 1.70837 14.9674 1.70837 10.25C1.70837 5.53256 5.53261 1.70833 10.25 1.70833C14.9675 1.70833 18.7917 5.53256 18.7917 10.25Z" stroke="white" stroke-width="2" stroke-linecap="round" stroke-linejoin="round"/>
</svg>
