<svg width="29" height="29" viewBox="0 0 29 29" fill="none" xmlns="http://www.w3.org/2000/svg">
<path d="M22.4762 20.7619C23.2063 22.6667 22.9682 24.4444 21.7619 26.0952C20.5555 27.746 18.8571 28.5714 16.6667 28.5714C15.619 28.5714 14.6273 28.3016 13.6914 27.7619C12.7543 27.2222 12.0635 26.5079 11.619 25.619C8.98412 26 6.8019 25.3251 5.07238 23.5943C3.34159 21.8647 2.63492 19.6508 2.95238 16.9524C2 16.4127 1.26984 15.6749 0.761905 14.739C0.253968 13.8019 0 12.7302 0 11.5238C0 9.5873 0.88127 8.02349 2.64381 6.83238C4.40508 5.64254 6.12698 5.39682 7.80952 6.09523L10.7619 7.33333C11.3968 6.3492 12.2381 5.5473 13.2857 4.92762C14.3333 4.3092 15.4603 3.96825 16.6667 3.90476V0H19.5238V4.28571C20.6984 4.63492 21.6667 5.18222 22.4286 5.92762C23.1905 6.67428 23.8413 7.71428 24.3809 9.04762H28.5714V11.9048H24.6667C24.6032 13.1111 24.2781 14.2381 23.6914 15.2857C23.1035 16.3333 22.3174 17.1746 21.3333 17.8095L22.4762 20.7619ZM10.6667 21.9048C10.6667 21.0476 10.7384 20.2146 10.8819 19.4057C11.0241 18.5955 11.2381 17.8095 11.5238 17.0476C10.7936 17.3968 10.0076 17.6425 9.16571 17.7848C8.32508 17.9282 7.49206 17.9682 6.66666 17.9048C6.66666 19.1428 7.02349 20.1194 7.73714 20.8343C8.45206 21.5479 9.42857 21.9048 10.6667 21.9048ZM7.14285 14.0952C8.15873 14.0952 9.05587 13.9682 9.83428 13.7143C10.6114 13.4603 11.619 12.9524 12.8571 12.1905L7.14285 9.80952C6.22222 9.42857 5.43682 9.43619 4.78666 9.83238C4.13524 10.2298 3.80952 10.8571 3.80952 11.7143C3.80952 12.5397 4.07936 13.1429 4.61905 13.5238C5.15873 13.9048 6 14.0952 7.14285 14.0952ZM16.6667 24.7619C17.4603 24.7619 18.1028 24.4838 18.5943 23.9276C19.087 23.3727 19.2063 22.7936 18.9524 22.1905L16.3809 15.7143C15.7778 16.7302 15.3098 17.746 14.9771 18.7619C14.6432 19.7778 14.4762 20.6984 14.4762 21.5238C14.4762 22.5714 14.659 23.3727 15.0248 23.9276C15.3892 24.4838 15.9365 24.7619 16.6667 24.7619ZM19.8095 14.1905C20.127 13.873 20.3809 13.4521 20.5714 12.9276C20.7619 12.4044 20.8571 11.8571 20.8571 11.2857C20.8571 10.2698 20.5238 9.41269 19.8571 8.71428C19.1905 8.01587 18.3651 7.66666 17.3809 7.66666C16.8095 7.66666 16.2698 7.7619 15.7619 7.95238C15.254 8.14285 14.8254 8.4127 14.4762 8.7619L18.1905 10.4762L19.8095 14.1905Z" fill="#BFB2FF"/>
</svg>
